<svg viewBox="0 0 1015 210" xmlns="http://www.w3.org/2000/svg"><path d="m0-.2h1015v210h-1015z" fill="#003da6"/><path d="m924.79 103-40.52 70.91h17.43l31.42-56.34 31.47 56.34h17.41l-40.51-70.91 37.1-66.13h-17.47l-28 51.6-27.94-51.6h-17.49zm-121.24-54.31c31.43 0 56.14 25.62 56.14 56.71 0 30.88-25.06 56.69-56.14 56.69s-56.15-25.82-56.15-56.69c0-31.08 24.74-56.71 56.15-56.71m0-14.17c-39.09 0-71.43 31.8-71.43 71.06 0 39.44 32.34 70.71 71.43 70.71s71.45-31.29 71.45-70.71c0-39.26-32.34-71.06-71.42-71.06m-150.49 79.23h3.78l41.43 60.18h18.75l-43.62-61.46c21.09-1.81 34.32-16.71 34.32-37.8 0-30.89-24.17-37.78-50.18-37.78h-19.76v137h15.27v-60.14zm0-62.69h4.49c18.4 0 34.9 2.18 34.9 24.71 0 21.27-17.42 24.55-34.68 24.55h-4.71zm-97.78 0h5.63c17.81 0 35.81 1.65 35.81 24 0 19.62-14.35 24.71-31.27 24.71h-10.17zm0 62.88h11.09c11.46 0 23.25-1.46 32.49-9.07 8.59-7.1 13.11-18.37 13.11-29.46 0-12.19-5.31-24.17-15.47-31.27-10-6.9-22.17-7.25-34-7.25h-22.53v137h15.3v-60zm-74.72 6.92h-46.34l23.45-54.86zm6 14.18 16.18 38.89h16.91l-61.62-143.6-63.25 143.61h16.73l16.53-38.89h58.52zm-166.82-21.29h3.79l41.44 60.18h18.72l-43.6-61.46c21.07-1.81 34.33-16.71 34.33-37.8 0-30.89-24.17-37.78-50.15-37.78h-19.82v137h15.28v-60.14zm0-62.69h4.54c18.35 0 34.9 2.18 34.9 24.71 0 21.27-17.45 24.55-34.72 24.55h-4.72zm-131.24-14.17h-15.27v85.78c0 15.63 1.46 28.17 13.46 39.61 9.27 9.11 22.53 14 35.42 14a50.43 50.43 0 0 0 36.86-15.62c10.9-11.27 12-23.1 12-38v-85.77h-15.24v81.59c0 10.73.56 22.71-6.72 31.44-6.35 7.65-17.09 12.17-26.9 12.17-10 0-21.63-4.71-27.61-13.09-6.36-8.71-6-20.33-6-30.52zm-40.71 11.11a66.11 66.11 0 0 0 -40.9-13.46 71.66 71.66 0 0 0 -71.42 71.39c0 38.91 32.71 70.34 71.42 70.34a70.39 70.39 0 0 0 40.9-13.45v-18.91c-10.91 10.9-26 18.17-41.43 18.17-30.71 0-55.61-26.53-55.61-56.69s24.72-56.71 55.22-56.71a58.66 58.66 0 0 1 41.79 18.16z" fill="#fff"/></svg>